<svg width="240" height="237" fill="none" xmlns="http://www.w3.org/2000/svg"><path opacity=".2" d="M211.125 203.826c-6.247 6.4-11.839 10.162-16.116 13.002-41.739 27.698-89.45 19.714-104.2 16.986-23.8-4.402-43.89-7.508-61.15-23.006-39.222-35.217-37.314-108.683-7.344-154.191C25.868 51.22 55.794 7.137 103.604.925c1.167-.152 2.043-.239 2.806-.319 7.397-.778 53.233-4.889 90.609 26.233 5.35 4.455 13.96 12.49 21.944 24.745 29.196 44.81 29.289 114.209-7.838 152.242z" fill="#F4F7FA"/><path d="M166.015 18.614v197.275c0 2.95-2.537 3.585-5.412 3.679l-98.563 5.066-1.493.048a5.401 5.401 0 01-3.938-1.504 5.343 5.343 0 01-1.637-3.865V15.19a5.32 5.32 0 011.636-3.865 5.386 5.386 0 013.939-1.504l2.026.066 98.925 7.646c2.874.094 4.517-1.872 4.517 1.08z" fill="url(#paint0_linear_183_1209)"/><path d="M169.085 18.614v197.275c0 2.95-2.349 5.44-5.225 5.534l-100.242 3.259a5.401 5.401 0 01-3.938-1.504 5.34 5.34 0 01-1.636-3.865V15.19a5.32 5.32 0 011.636-3.865 5.41 5.41 0 013.938-1.504l100.243 3.26c2.875.094 5.224 2.58 5.224 5.533z" fill="#432950"/><path d="M169.085 18.614v197.275c0 2.95-2.349 5.44-5.225 5.534l-100.242 3.259a5.401 5.401 0 01-3.938-1.504 5.34 5.34 0 01-1.636-3.865V15.19a5.32 5.32 0 011.636-3.865 5.41 5.41 0 013.938-1.504l100.243 3.26c2.875.094 5.224 2.58 5.224 5.533z" fill="#000" fill-opacity=".2"/><path d="M165.84 29.459v182.753c0 2.754-2.195 5.076-4.882 5.159l-94.255 2.944a5.057 5.057 0 01-3.667-1.408 4.978 4.978 0 01-1.523-3.601V26.598a4.976 4.976 0 011.523-3.605 5.037 5.037 0 013.667-1.415l94.259 2.734c2.683.076 4.878 2.392 4.878 5.147z" fill="url(#paint1_linear_183_1209)"/><path d="M116.373 17.59a1.79 1.79 0 01-.54 1.307 1.814 1.814 0 01-1.322.517c-1.029-.031-1.863-.9-1.863-1.94a1.792 1.792 0 011.148-1.7 1.84 1.84 0 01.715-.124c.502.023.976.238 1.323.6.347.36.54.841.539 1.34z" fill="#DE8BDF"/><path d="M157.124 113.319l-86.375-.106a4.657 4.657 0 01-3.273-1.358 4.598 4.598 0 01-1.35-3.26V30.811a4.433 4.433 0 011.35-3.22 4.489 4.489 0 013.273-1.266l86.375 2.382c2.418.068 4.373 2.127 4.373 4.6v75.538c.001 2.474-1.956 4.478-4.373 4.474z" fill="#F4F7FA"/><path d="M130.461 104.355l-32.058-.127a.776.776 0 01-.54-.229.762.762 0 01-.221-.54v-9.364a.754.754 0 01.468-.703.764.764 0 01.293-.057l32.058.234a.762.762 0 01.75.764v9.267a.744.744 0 01-.75.755z" fill="#764E80"/><path d="M153.865 68.326l-77.157-1.174V36.778l77.157 1.886v29.662zm0 16.201l-77.157-.785v-10.72l77.157 1.037v10.468z" fill="#D8DEE8"/><path d="M157.124 209.777l-86.374 2.485a4.491 4.491 0 01-3.273-1.26 4.424 4.424 0 01-1.351-3.22v-77.78a4.602 4.602 0 011.35-3.261 4.66 4.66 0 013.273-1.363l86.375-.213c2.418-.006 4.373 1.995 4.373 4.468v75.537c.002 2.478-1.956 4.537-4.373 4.607z" fill="#F4F7FA"/><path d="M145.125 181.424l-61.816 1.231a1.477 1.477 0 01-1.506-1.478v-44.649a1.505 1.505 0 01.439-1.066 1.522 1.522 0 011.067-.45l61.816-.332a1.461 1.461 0 011.344.91c.072.177.108.367.105.558v43.769c0 .816-.648 1.492-1.449 1.507z" fill="#D8DEE8"/><path d="M130.461 200.994l-32.058.829a.746.746 0 01-.76-.746v-9.363a.78.78 0 01.22-.545.792.792 0 01.54-.239l32.058-.722a.751.751 0 01.534.212.737.737 0 01.217.53v9.268a.776.776 0 01-.751.776z" fill="#764E80"/><path d="M114.511 161.826a1.394 1.394 0 01-.867-.294L79.81 135.891c-.77-.58-1-1.806-.507-2.734.494-.928 1.508-1.203 2.277-.62l32.962 25.024 34.73-25.373c.751-.548 1.72-.249 2.168.671.448.92.196 2.108-.554 2.658l-35.549 26.018a1.428 1.428 0 01-.826.291z" fill="#F4F7FA"/><path d="M169.085 30.758c-4.086.5-8.122 1.34-12.068 2.508-7.162 2.124-25.12 7.448-34.751 22.455-11.209 17.464-4.928 38.365-3.412 43.402 5.016 16.688 17.661 31.516 24.905 40.01 8.49 9.955 12.173 11.88 12.965 18.23 1.272 10.172-6.946 15.151-7.428 31.313-.097 3.237-.192 7.717 1.552 13.067 3.411 10.471 11.339 16.532 15.228 19.098l3.009-190.083z" fill="#D8DEE8" opacity=".5"/><path d="M180.773 104.05c8.292-4.024 24.465 10.553 32.336 24.516 3.136 5.564 6.819 12.098 5.915 19.863-1.601 13.768-16.97 25.846-38.122 29.878l-1.787-6.341a196.63 196.63 0 0110.192-9.81c6.79-6.083 8.185-6.489 8.511-8.409 1.066-6.29-15.21-11.557-21-22.62-4.977-9.506-2.415-23.989 3.955-27.077z" fill="#432950"/><path d="M191.667 214.713s-1.361 3.338-.684 4.645c.71 1.373 2.765.964 8.55 1.18 5.919.222 7.263.694 7.503.102.474-1.181-4.129-4.935-9.513-5.927-1.936-.35-3.92-.35-5.856 0z" fill="url(#paint2_linear_183_1209)"/><path d="M192.887 209.724l3.221 4.989s-1.484 1.456-4.007.912l-3.543-4.727 4.329-1.174z" fill="url(#paint3_linear_183_1209)"/><path d="M176.818 131.13c-4.977-9.509-2.418-23.988 3.956-27.08 1.667-.81 3.663-.856 5.841-.314-1.147 3.292-.917 5.671-.354 7.357 2.524 7.517 13.435 6.662 16.842 15.218 2.155 5.409-1.272 8.093 1.786 12.429 3.168 4.493 8.353 3.74 9.953 8.12 1.193 3.261-1.159 5.116-.255 7.863.25.765.751 1.534 1.584 2.264-5.606 10.02-18.65 18.157-35.271 21.324l-1.786-6.341a195.81 195.81 0 0110.192-9.81c6.79-6.083 8.185-6.489 8.511-8.408 1.068-6.295-15.209-11.564-20.999-22.622z" fill="#432950" opacity=".3"/><path d="M186.431 107.034a528.513 528.513 0 00.893 46.583 528.87 528.87 0 006.92 58.12l-4.089 1.297c-14.029-13.589-18.228-25.536-19.377-34.133-.813-6.076.417-6.599-.679-14.204-2.084-14.483-7.536-19.443-11.361-33.001-1.436-5.089-3.034-12.777-2.933-22.799l30.626-1.863z" fill="#432950"/><path d="M196.481 81.22c-.254.058-1.361.423-1.798 5.015-1.054 11.073 4.746 15.556 3.318 21.56-1.371 5.764-8.363 8.56-15.56 11.435-4.809 1.924-19.685 7.871-28.336 1.183-3.64-2.818-4.039-6.215-6.636-18.708-6.6-31.745-9.156-34.47-6.381-41.348 4.767-11.8 17.529-16.688 19.652-17.5 22.64-8.664 49.376 7.274 59.941 25.578 1.391 2.41 9.699 16.806 3.862 23.635-3.532 4.13-11.647 4.797-17.003 1.98-7.155-3.764-8.675-13.373-11.059-12.83z" fill="#D283B0"/><path opacity=".8" d="M221.225 89.617a.509.509 0 00.462-.718c-.194-.421-4.867-10.39-15.667-14.324a.516.516 0 00-.564.125.507.507 0 00.214.827c10.387 3.785 15.042 13.694 15.09 13.793a.508.508 0 00.465.297z" fill="#B0608E"/><path d="M178.827 78.232c.059-.458.527-3.621 3.184-4.634 1.321-.504 3.644-.652 4.548.791.568.906.519 2.345-.227 3.052-.943.892-2.172-.166-3.866.565-2.037.882-2.368 3.327-3.071 3.164-.555-.127-.722-1.728-.568-2.938z" fill="#432950"/><path opacity=".3" d="M155.891 56.306c1.429 3.866-2.858 7.217-1.02 11.413 2.633 6.017 13.101 2.929 16.841 8.878 4.435 7.051-5.722 18.616-1.532 22.574 1.91 1.804 4.117-.506 9.698.761 7.951 1.805 10.339 8.049 14.037 7.102 1.163-.297 2.573-1.347 3.759-4.577.517 1.792.763 3.493.325 5.338-1.371 5.763-8.363 8.56-15.56 11.434-4.81 1.924-19.685 7.872-28.335 1.184-3.641-2.818-4.04-6.215-6.637-18.709-6.6-31.744-9.156-34.47-6.381-41.347 1.514-3.747 3.836-6.794 6.364-9.238 5.455 1.203 7.693 3.163 8.441 5.187z" fill="#764E80"/><path d="M178.661 75.252c-.612.552-7.461 7.863-14.912 6.012-6.488-1.613-10.472-7.883-11.172-13.158-1.66-12.547 14.788-23.079 12.756-25.618-1.192-1.492-7.542 1.277-11.995 4.06-3.65 2.28-18.946 11.832-18.536 27.85.042 1.625.305 11.925 7.164 17.07 9.264 6.942 23.581 6.757 38.876-10.027l-2.181-6.189z" fill="#9A6094"/><path d="M212.101 59.879l-7.374 23.412c-.119.374-.35.702-.664.94a1.915 1.915 0 01-1.087.386l-9.643 1.393a1.916 1.916 0 01-1.532-.678 1.9 1.9 0 01-.401-1.618l6.503-23.965a1.902 1.902 0 011.805-1.492l10.515-.84a1.92 1.92 0 011.578.75 1.885 1.885 0 01.3 1.712z" fill="url(#paint4_linear_183_1209)"/><path d="M211.748 60.65l-7.158 22.722a1.84 1.84 0 01-.644.913 1.862 1.862 0 01-1.058.376l-8.474 1.352a1.863 1.863 0 01-1.486-.659 1.83 1.83 0 01-.389-1.57l6.352-23.272c.087-.4.307-.761.624-1.024a1.857 1.857 0 011.126-.425l9.281-.804a1.864 1.864 0 011.533.727 1.832 1.832 0 01.293 1.663z" fill="url(#paint5_linear_183_1209)"/><path style="mix-blend-mode:multiply" opacity=".3" d="M192.539 83.783l6.068-22.233a8.08 8.08 0 011.712 1.083c2.39 2.037 3.759 5.725 2.97 8.674-1.007 3.762-4.868 3.878-5.402 7.008-.417 2.45 1.584 5.043 3.232 6.629l-6.704 1.07a1.865 1.865 0 01-1.487-.66 1.834 1.834 0 01-.389-1.571z" fill="url(#paint6_linear_183_1209)"/><path d="M184.078 40.607a2.672 2.672 0 00.263 2.096 2.697 2.697 0 001.702 1.264c1.813.435 4.022 1.036 4.975 1.574 1.751.994-5.336-.154-11.846-.307-4.068-.094-7.107-.548-8.817-.876a.454.454 0 01-.364-.414.45.45 0 01.314-.454c1.628-.526 4.275-1.3 6.512-1.58 2.769-.346 5.739-6.42 5.739-6.42l2.37 2.147-.848 2.97zm23.573 35.956l-.45-.732a3.135 3.135 0 00-1.279-1.802 3.171 3.171 0 00-2.158-.518l-2.367.29a1.279 1.279 0 00-.88.522 1.25 1.25 0 00-.208.997c.22 1.05.787 2.305 2.241 2.208 2.469-.166 4.048 3.412 4.048 3.412l.947-1.326a2.757 2.757 0 00.106-3.051z" fill="#432950"/><path d="M189.368 37.495c2.046-.302 4.339-2.011 4.294-3.425-.061-1.941-4.528-3.005-6.783-3.542-2.255-.537-3.223-.344-3.869.146-.662.501-1.097 1.397-1.239 2.17-.078.42-.084 1-.01 2.154.065 1.025.046.98.073 1.283.064.727.264 2.005.977 3.778a9.24 9.24 0 011.187-1.091c.191-.147.947-.715 1.807-1.059 1.475-.589 2.319-.231 3.563-.414z" fill="#432950"/><path d="M181.722 38.084s.133 2.833 2.819 4.078c2.406 1.114 5.599-3.878 4.721-5.785-.294-.635-1.201-1.325-2.13-1.54-.55-.128-.819-.019-1.713-.243-.824-.206-.984-.397-1.301-.331-.399.083-.906.53-1.285 2.29-.197-.687-.635-1.147-1.109-1.176a.901.901 0 00-.474.131c-.651.413-.524 1.464.472 2.575z" fill="url(#paint7_linear_183_1209)"/><defs><linearGradient id="paint0_linear_183_1209" x1="189.179" y1="186.341" x2="94.687" y2="105.236" gradientUnits="userSpaceOnUse"><stop stop-color="#444B8C"/><stop offset="1" stop-color="#26264F"/></linearGradient><linearGradient id="paint1_linear_183_1209" x1="62.849" y1="220.317" x2="183.813" y2="208.699" gradientUnits="userSpaceOnUse"><stop stop-color="#16153A"/><stop offset="1" stop-color="#7E488C"/></linearGradient><linearGradient id="paint2_linear_183_1209" x1="38363.2" y1="14439.2" x2="38578.9" y2="17642.8" gradientUnits="userSpaceOnUse"><stop stop-color="#444B8C"/><stop offset="1" stop-color="#26264F"/></linearGradient><linearGradient id="paint3_linear_183_1209" x1="188.481" y1="188.842" x2="194.281" y2="225.377" gradientUnits="userSpaceOnUse"><stop stop-color="#311944"/><stop offset="1" stop-color="#A03976"/></linearGradient><linearGradient id="paint4_linear_183_1209" x1="55083.9" y1="28665.3" x2="47723.6" y2="24625.3" gradientUnits="userSpaceOnUse"><stop stop-color="#444B8C"/><stop offset="1" stop-color="#26264F"/></linearGradient><linearGradient id="paint5_linear_183_1209" x1="-15362.4" y1="21799.3" x2="-19809.2" y2="27384.6" gradientUnits="userSpaceOnUse"><stop stop-color="#444B8C"/><stop offset="1" stop-color="#26264F"/></linearGradient><linearGradient id="paint6_linear_183_1209" x1="25790.7" y1="17396.2" x2="33289.6" y2="25571.8" gradientUnits="userSpaceOnUse"><stop stop-color="#444B8C"/><stop offset="1" stop-color="#26264F"/></linearGradient><linearGradient id="paint7_linear_183_1209" x1="9557.1" y1="2589.7" x2="9273.24" y2="3342.61" gradientUnits="userSpaceOnUse"><stop stop-color="#311944"/><stop offset="1" stop-color="#A03976"/></linearGradient></defs></svg>