<svg width="18" height="13" fill="none" xmlns="http://www.w3.org/2000/svg"><path d="M17.887.92l-5.512 5.522 5.512 5.523c.113-.23.113-.46.113-.69V1.61c0-.23-.113-.46-.113-.69zM16.425 0H1.575C1.35 0 1.125.115.9.115l6.975 7.133c.563.575 1.575.575 2.25 0L17.1.115c-.225 0-.45-.115-.675-.115zM.112.92c0 .23-.112.46-.112.69v9.664c0 .23.113.46.113.69l5.512-5.522L.112.92zm11.476 6.328l-.675.805c-1.126 1.035-2.7 1.035-3.825 0l-.676-.805L.9 12.77c.225.115.45.115.675.115h14.85c.225 0 .45-.115.675-.115l-5.513-5.522z" fill="#BCC9DA"/></svg>