<svg width="268" height="267" fill="none" xmlns="http://www.w3.org/2000/svg"><path opacity=".2" d="M256.145 75.883c7.038-64.725-55.116-87.212-99.179-70.64-44.42 16.707-54.718-10.987-117.18-3.07C-23.46 10.181 8.65 110.414 8.65 110.414s10.064 87.158 21.986 127.334C42.494 277.705 156 263.249 183.612 262.057c27.452-1.186 51.308 1.102 75.193-42.771 23.842-43.795-9.677-78.891-2.661-143.403z" fill="#F4F7FA"/><path d="M175.404 244.607c1.488-.71 4.105-3.579 4.481-4.606 2.508-6.867 8.031-19.415 5.247-26.623-.475-1.231-6.403-.581-7.551-1.479-3.88-.512-5.257-.447-8.708-2.763-10.189-6.837.785-29.511-20.374-29.309-15.497.147-25.814 8.923-31.369-13.625-5.554-22.548-35.755-57.081-53.892-34.158-10.41 13.153 9.04 27.519 6.662 43.578-2.26 15.256 6.727 24.275 23.088 27.65 16.361 3.374 10.912 11.847 10.899 25.647-.02 16.584 23.698 11.774 34.459 8.611 8.666-2.55 32.436-3.132 37.058 7.077z" fill="#432950"/><g style="mix-blend-mode:soft-light" opacity=".8" fill="#FCFDFE"><path d="M182.521 227.358a131.481 131.481 0 01-39.318-12.08c-11.88-5.818-22.965-13.479-32.961-22.769-19.405-18.033-34.378-41.92-43.306-69.079l.291-.096c18.839 57.322 61.955 96.095 115.336 103.722l-.042.302z" opacity=".8"/><path d="M103.083 235.792l-.181-.249c11.96-8.803 34.298-16.234 49.8-16.565l.007.309c-15.451.33-37.709 7.734-49.626 16.505zm68.984-10.049c-7.413-3.358-12.86-10.35-16.183-20.789-2.425-7.619-3.686-16.867-3.747-27.486h.306c.061 10.589 1.317 19.805 3.732 27.393 3.296 10.352 8.684 17.285 16.016 20.603l-.124.279zm-64.486-35.904c-13.4-6.918-29.107-4.808-39.926-1.823l-.08-.299c10.87-3.002 26.661-5.118 40.146 1.844l-.14.278zm-22.072-26.996c-6.463-16.075-1.733-33.623 1.657-42.653l.285.11c-3.375 8.987-8.078 26.45-1.661 42.427l-.281.116z" opacity=".8"/></g><path d="M150.638 252.43a920.664 920.664 0 0031.164-3.988c.168.115 3.577-16.879-7.161-25.792-21.236-17.263-6.932-32.761-2.851-41.943 6.462-12.939 3.064-26.949-14.454-27.156-19.43-.518-22.952-24.686-19.431-46.679 2.723-10.725-10.739-23.737-24.172-26.71-13.714-3.295-27.399 3.452-31.593 24.825-6.348 24.751 17.677 39.676 26.579 52.085 8.756 12.183-11.611 22.039 4.781 32.832 13.789 9.591 31.173 16.486 24.811 28.532-6.532 11.911-4.969 21.648 12.327 33.994z" fill="#764E80"/><path d="M147.692 205.494c-1.646-10.387 1.57-21.553 9.556-33.187 4.159-6.059 9.463-11.998 15.763-17.641.331-.296.591-.529.626-.576l.333.144c-.051.066-.229.227-.665.618-8.755 7.845-28.738 28.483-25.234 50.609l-.379.033zm-4.69-10.877c-12.313-14.953-38.129-16.007-38.57-16.007l-.017-.144-.061.138-.132-.142.143-.135c.223-.046 26.499.996 38.966 16.14l-.329.15zm19.829 52.99c-.223-4.546 1.929-12.285 13.437-23.336.271-.259.504-.483.536-.527l.141.056.226-.024c.015.086.015.086-.6.674-11.438 10.981-13.576 18.649-13.355 23.146l-.385.011zm-2.642-8.472c-3.025-7.846-17.723-13.629-26.216-16.378-.285-.093-.475-.154-.542-.179l.176-.259c.063.024.241.082.518.172 8.553 2.769 23.364 8.602 26.433 16.562l-.369.082z" fill="#FCFDFE" opacity=".8"/><path d="M165.597 257.132l-49.29-3.786V113.314l49.29-3.685v147.503z" fill="url(#paint0_linear_78_2396)"/><path d="M120.118 247.226V119.444l45.479-3.087v134.047l-45.479-3.178z" fill="#fff"/><path d="M199.215 249.085H256.7V117.87h-57.485v131.215z" fill="url(#paint1_linear_78_2396)"/><path d="M252.041 243.092V123.774h-52.825v119.318h52.825z" fill="#fff"/><path d="M199.216 249.086l-33.619 8.046V109.629l33.619 8.241v131.216z" fill="#B0608E"/><path d="M165.597 250.404V116.357l33.619 7.497V243.1l-33.619 7.304z" fill="#D8DEE8"/><path d="M180.075 84.254c0 18.063 22.771 61.435 32.212 76.554 1.605 2.571 8.205 2.093 9.81-.479 9.438-15.118 35.194-58.012 35.194-76.075 0-22.118-17.285-40.048-38.606-40.048-21.322 0-38.61 17.93-38.61 40.048z" fill="url(#paint2_linear_78_2396)"/><path d="M175.884 84.254c0 18.063 25.748 60.957 35.189 76.077a4.035 4.035 0 001.46 1.413 3.983 3.983 0 003.914 0 4.033 4.033 0 001.459-1.413c9.441-15.12 35.19-58.014 35.19-76.077 0-22.118-17.285-40.048-38.606-40.048-21.322 0-38.606 17.93-38.606 40.048z" fill="#432950"/><path opacity=".7" d="M214.49 102.617c11.743 0 21.263-9.876 21.263-22.058s-9.52-22.057-21.263-22.057c-11.744 0-21.264 9.875-21.264 22.057 0 12.182 9.52 22.058 21.264 22.058z" fill="#fff"/><path d="M214.489 101.303c11.044 0 19.997-9.287 19.997-20.744 0-11.456-8.953-20.744-19.997-20.744-11.043 0-19.996 9.288-19.996 20.744 0 11.457 8.953 20.744 19.996 20.744z" fill="#fff"/><path d="M56.643 260.989c-.676 1.392-.486 1.99-.317 2.253.493.767 1.68.043 4.78.413.64.098 1.291.076 1.923-.067.741-.177 1.615-.576 1.578-.776-.013-.073-.145-.102-.19-.113-.86-.185-6.245-1.853-6.245-1.853l-1.529.143z" fill="url(#paint3_linear_78_2396)"/><path d="M56.23 257.93l.48 3.11s1.324.945 1.672-.202c.25-.824.243-3.047.243-3.047l-2.395.139z" fill="url(#paint4_linear_78_2396)"/><path d="M71.86 259.47l-1.3 3.582-1.888-.303.437-3.317 2.75.038z" fill="url(#paint5_linear_78_2396)"/><path d="M69.972 265.024c-.914-1.094-1.73-.995-1.895-1.747-.13-.592.229-1.317.77-1.592.76-.384 1.682.218 1.89.354 1.414.927 1.028 2.379 2.361 3.007.268.127.694.261 1.14.685.19.181.666.627.552.934-.128.355-.968.342-1.767.331-.959-.015-1.439-.021-1.9-.312-.637-.402-.446-.815-1.151-1.66z" fill="url(#paint6_linear_78_2396)"/><path d="M46.126 183.512a103.561 103.561 0 002.542 18.45c1.257 5.418 1.941 6.344 2.376 10.099.95 8.172-1.641 9.403-1.924 18.667-.313 10.232 2.552 18.296 3.675 21.372a58.87 58.87 0 002.756 6.359c.95.797 2.359.452 3.848.113.355-9.282.855-18.021 1.21-27.303l4.445-41.951-18.928-5.806z" fill="url(#paint7_linear_78_2396)"/><path style="mix-blend-mode:multiply" opacity=".3" d="M59.4 258.572c.355-9.282.856-18.021 1.212-27.303 1.48-13.984 2.962-27.967 4.444-41.951l-18.93-5.806c.023.48.056.941.086 1.412 8.954 7.516 10.804 13.585 10.807 17.75 0 5.054-2.68 7.617-1.99 14.929.494 5.228 2.073 6.117 2.173 10.842.128 6.084-2.386 9.562-3.57 13.105-1.141 3.425-1.478 8.252 1.02 15.043.324.7.629 1.327.9 1.864.947.799 2.36.455 3.849.115z" fill="url(#paint8_linear_78_2396)"/><path d="M57.368 190.247c4.774 7.753 7.463 13.879 8.934 17.666.897 2.309 1.716 4.719 1.962 7.896a25.094 25.094 0 01-1.019 9.174 48.347 48.347 0 00-2.199 9.203c-1.541 11.261 1.261 20.597 3.413 25.954l3.367 1.176a187.293 187.293 0 007.2-29.861c1.067-6.833 1.88-12.192 1.743-18.973-.142-7.15-1.388-18.443-7.47-31.834l-15.93 9.599z" fill="url(#paint9_linear_78_2396)"/><path d="M58.627 128.285c7.107 1.074 12.526 2.235 15.015 5.928 2.627 3.9-1.352 6.965-2.267 15.667-1.4 13.322 6.272 18.121 4.378 31.545a34.794 34.794 0 01-3.083 10.137c-2.247 1.934-5.83 4.584-10.728 6.429-7.127 2.692-10.7 1.294-20.35 2.061-15.784 1.254-18.051 5.933-25.251 3.241-7.277-2.719-12.665-10.377-11.205-13.73.874-2.009 3.792-.83 7.888-3.358 5.276-3.263 4.288-7.537 8.546-11.316 6.114-5.426 12.22-.212 17.449-4.929 5.288-4.771 5.691-16.104 3.257-22.792-1.589-4.369-1.718-9.155-2.924-13.647a2.925 2.925 0 01.03-1.653c.828-2.615 5.522-3.216 9.07-3.636 5.41-.642 9.59-.043 10.175.053z" fill="#B0608E"/><path d="M17.06 198.238c2.156-1.52.883-5.667 4.076-7.953 2.964-2.121 5.367.518 9.77-.951 5.648-1.883 5.234-7.402 10.644-9.284 3.89-1.353 5.126 1.146 10.78 1.133 5.654-.014 12.985-2.526 17.547-8.667a20.427 20.427 0 003.54-7.912c1.616 4.887 3.352 9.608 2.336 16.813a34.804 34.804 0 01-3.083 10.137c-2.248 1.933-5.83 4.583-10.728 6.428-7.128 2.692-10.701 1.295-20.35 2.061-15.784 1.254-18.051 5.933-25.252 3.242-4.65-1.738-8.519-5.492-10.332-8.851 6.34 4.461 9.487 4.906 11.052 3.804z" fill="#764E80" opacity=".3"/><path d="M60.649 115.795s2.28 3.503 2.64 6.077c.357 2.574-2.549 2.654-2.549 2.654l.258 1.62a3.56 3.56 0 00.862 1.818 3.505 3.505 0 001.704 1.05l1.18.317s-7.296 2.303-11.625-.219l1.162-.224a3.509 3.509 0 002.036-1.214 3.57 3.57 0 00.815-2.24l.01-.7s-2.029-7.939 3.507-8.939z" fill="url(#paint10_linear_78_2396)"/><path d="M74.335 156.816l9.24-20.821a.638.638 0 01.657-.373l16.157 2.057a.63.63 0 01.554.621.647.647 0 01-.064.294l-10.894 22.497a.635.635 0 01-.721.341l-14.384-3.595-.545-1.021z" fill="url(#paint11_linear_78_2396)"/><path d="M76.878 154.296l7.48-16.858a.512.512 0 01.533-.302l13.082 1.665a.507.507 0 01.387.268.52.52 0 01.01.473l-8.82 18.215a.511.511 0 01-.584.276l-11.646-2.908-.442-.829z" fill="#F4F7FA"/><path d="M87.071 137.336l.593-1.352a.461.461 0 01.475-.275l6.722.798a.465.465 0 01.41.445.472.472 0 01-.042.214l-.665 1.471a.46.46 0 01-.485.271l-6.651-.918a.472.472 0 01-.34-.238.465.465 0 01-.017-.416z" fill="url(#paint12_linear_78_2396)"/><path d="M96.24 141.894a.154.154 0 01-.03 0l-11.85-1.535a.273.273 0 01-.232-.302.273.273 0 01.301-.233l11.849 1.535a.268.268 0 01.228.286.274.274 0 01-.084.179.272.272 0 01-.182.073v-.003zm-.608 1.208H95.6l-11.785-1.651a.27.27 0 01-.215-.303.27.27 0 01.288-.233l11.785 1.651a.27.27 0 01.228.288.27.27 0 01-.268.251v-.003zM89.7 145a.14.14 0 01-.04 0l-6.428-1.081a.27.27 0 01-.22-.31.271.271 0 01.203-.219.282.282 0 01.104-.004l6.428 1.082a.263.263 0 01.17.099.271.271 0 01-.031.369.266.266 0 01-.186.068V145z" fill="#D8DEE8"/><path d="M92.652 155.585s2.632-1.807 2.939-3.081c.307-1.275.23-3.673.23-3.673l-1.535 3.378s-.741-.215-1.06-1.328c-.32-1.113-.856-.096-.642.748.214.843.068 3.956.068 3.956z" fill="url(#paint13_linear_78_2396)"/><path d="M72.38 132.952a19.68 19.68 0 015.34 4.778c5.273 6.891 3.218 14.233 7.58 16.829 1.247.743 3.436 1.343 7.389-.065l1.515.813s1.851 9.499-9.579 9.858-17.124-13.989-17.124-13.989l4.88-18.224z" fill="#B0608E"/><path d="M59.821 119.567c-.388 0-.75-.459-1-.288-.25.171-.166.893.12 1.375.184.3.45.54.766.691a4.797 4.797 0 00-.659 1.982c-.177 1.9.943 3.31 1.432 4.151 2.205 3.791-.095 10.321-2.946 13.777-2.323 2.809-3.612 1.886-4.942 4.126-2.6 4.365 1.913 8.475.879 14.12-1.574 8.582-14.43 12.289-14.963 12.436-.21.057-.352.096-.57.151-5.783 1.488-14.549 3.742-21.257-.537-5.02-3.203-7.748-9.336-7.902-14.947-.04-1.476-.109-7.087 3.971-12.051.647-.788 4.483-5.443 10.188-6.027 3.021-.309 3.73.71 5.98-.17 3.084-1.206 4.769-4.293 5.814-6.208 1.923-3.524.95-4.147 2.406-5.927 2.845-3.488 6.755-1.321 9.848-4.453 3.05-3.087.712-6.673 3.68-9.374 3.063-2.788 9.434-2.508 11.045.322 1.378 2.435-.702 6.837-1.89 6.851z" fill="url(#paint14_linear_78_2396)"/><path d="M132.348 203.197l-29.701-3.666v-44.224l29.701-5.68v53.57z" fill="url(#paint15_linear_78_2396)"/><path d="M168.575 200.867l-36.227 2.33v-53.57l36.227 5.049v46.191z" fill="url(#paint16_linear_78_2396)"/><path d="M146.004 151.531v7.511l12.06 1.137v-6.967l-12.06-1.681z" fill="#fff"/><path d="M175.7 261.684l-48.688 3.457v-71.995l48.688 3.457v65.081z" fill="url(#paint17_linear_78_2396)"/><path d="M175.7 261.684l-48.688 3.457v-71.995l48.688 3.457v65.081z" fill="#000" fill-opacity=".2"/><path d="M127.013 265.141l-39.917-4.927v-62.472l39.917-4.596v71.995z" fill="url(#paint18_linear_78_2396)"/><path d="M127.013 265.141l-39.917-4.927v-62.472l39.917-4.596v71.995z" fill="#000" fill-opacity=".05"/><path d="M144.248 194.37v11.256l16.313.836v-10.933l-16.313-1.159z" fill="#fff"/><defs><linearGradient id="paint0_linear_78_2396" x1="116.939" y1="257.132" x2="174.4" y2="253.619" gradientUnits="userSpaceOnUse"><stop stop-color="#16153A"/><stop offset="1" stop-color="#7E488C"/></linearGradient><linearGradient id="paint1_linear_78_2396" x1="255.964" y1="117.87" x2="189.126" y2="123.228" gradientUnits="userSpaceOnUse"><stop stop-color="#16153A"/><stop offset="1" stop-color="#7E488C"/></linearGradient><linearGradient id="paint2_linear_78_2396" x1="247.274" y1="99.949" x2="212.462" y2="103.78" gradientUnits="userSpaceOnUse"><stop stop-color="#893976"/><stop offset="1" stop-color="#311944"/></linearGradient><linearGradient id="paint3_linear_78_2396" x1="62.936" y1="271.729" x2="56.523" y2="249.693" gradientUnits="userSpaceOnUse"><stop stop-color="#444B8C"/><stop offset="1" stop-color="#26264F"/></linearGradient><linearGradient id="paint4_linear_78_2396" x1="57.303" y1="267.371" x2="57.794" y2="232.062" gradientUnits="userSpaceOnUse"><stop stop-color="#FFC444"/><stop offset="1" stop-color="#F36F56"/></linearGradient><linearGradient id="paint5_linear_78_2396" x1="6366.89" y1="10286.7" x2="6366.89" y2="8954.36" gradientUnits="userSpaceOnUse"><stop stop-color="#FFC444"/><stop offset="1" stop-color="#F36F56"/></linearGradient><linearGradient id="paint6_linear_78_2396" x1="13592.6" y1="15410.8" x2="13278.8" y2="14126.1" gradientUnits="userSpaceOnUse"><stop stop-color="#444B8C"/><stop offset="1" stop-color="#26264F"/></linearGradient><linearGradient id="paint7_linear_78_2396" x1="55.321" y1="191.131" x2="51.032" y2="264.05" gradientUnits="userSpaceOnUse"><stop stop-color="#311944"/><stop offset="1" stop-color="#893976"/></linearGradient><linearGradient id="paint8_linear_78_2396" x1="34285.5" y1="149235" x2="24414.7" y2="204972" gradientUnits="userSpaceOnUse"><stop stop-color="#311944"/><stop offset="1" stop-color="#893976"/></linearGradient><linearGradient id="paint9_linear_78_2396" x1="54477.5" y1="185677" x2="39939" y2="185485" gradientUnits="userSpaceOnUse"><stop stop-color="#311944"/><stop offset="1" stop-color="#893976"/></linearGradient><linearGradient id="paint10_linear_78_2396" x1="21881.5" y1="16394.3" x2="20735.5" y2="18081.5" gradientUnits="userSpaceOnUse"><stop stop-color="#FFC444"/><stop offset="1" stop-color="#F36F56"/></linearGradient><linearGradient id="paint11_linear_78_2396" x1="58249.2" y1="37395.3" x2="54176.7" y2="44180.2" gradientUnits="userSpaceOnUse"><stop stop-color="#444B8C"/><stop offset="1" stop-color="#26264F"/></linearGradient><linearGradient id="paint12_linear_78_2396" x1="17788.1" y1="4955.2" x2="17848.8" y2="4654.99" gradientUnits="userSpaceOnUse"><stop stop-color="#AA80F9"/><stop offset="1" stop-color="#6165D7"/></linearGradient><linearGradient id="paint13_linear_78_2396" x1="7406.14" y1="10579.8" x2="7124.61" y2="10801.9" gradientUnits="userSpaceOnUse"><stop stop-color="#FFC444"/><stop offset="1" stop-color="#F36F56"/></linearGradient><linearGradient id="paint14_linear_78_2396" x1="78971.2" y1="106785" x2="99107.8" y2="64905.5" gradientUnits="userSpaceOnUse"><stop stop-color="#444B8C"/><stop offset="1" stop-color="#26264F"/></linearGradient><linearGradient id="paint15_linear_78_2396" x1="39761" y1="93962.4" x2="101372" y2="177844" gradientUnits="userSpaceOnUse"><stop stop-color="#FFC1C1"/><stop offset=".31" stop-color="#FB4A8A"/><stop offset="1" stop-color="#FFD3D3"/></linearGradient><linearGradient id="paint16_linear_78_2396" x1="10586.8" y1="135981" x2="42117.6" y2="122755" gradientUnits="userSpaceOnUse"><stop stop-color="#FFC444"/><stop offset=".31" stop-color="#FBA94A"/><stop offset="1" stop-color="#FC6681"/></linearGradient><linearGradient id="paint17_linear_78_2396" x1="14177.3" y1="182744" x2="56553.1" y2="164970" gradientUnits="userSpaceOnUse"><stop stop-color="#FFC444"/><stop offset=".31" stop-color="#FBA94A"/><stop offset="1" stop-color="#FC6681"/></linearGradient><linearGradient id="paint18_linear_78_2396" x1="53385.7" y1="126273" x2="136189" y2="239005" gradientUnits="userSpaceOnUse"><stop stop-color="#FFC1C1"/><stop offset=".31" stop-color="#FB4A8A"/><stop offset="1" stop-color="#FFD3D3"/></linearGradient></defs></svg>