<svg fill="none" height="18" width="18" xmlns="http://www.w3.org/2000/svg"><path d="M17.438 12.938s-3.6-2.588-4.613-2.476c-.45.113-.787.45-1.238 1.013-.112.113-.337.338-.45.563-.337-.113-.675-.226-1.012-.45-1.688-.675-3.038-2.025-3.825-3.713-.113-.338-.338-.675-.45-1.012.225-.113.45-.338.563-.45.674-.45 1.012-.788 1.012-1.238C7.65 4.163 5.063.563 4.95.563 4.837.224 4.387 0 4.05 0 2.925 0 0 3.825 0 4.5c0 0 0 3.825 4.837 8.662C9.563 18 13.5 18 13.5 18c.675 0 4.5-2.925 4.5-4.05 0-.338-.225-.787-.563-1.012z" fill="#bcc9da"/></svg>