<svg width="18" height="18" fill="none" xmlns="http://www.w3.org/2000/svg"><path d="M17.438 12.938s-3.6-2.588-4.613-2.476c-.45.113-.787.45-1.237 1.013-.113.113-.338.338-.45.563-.338-.113-.675-.226-1.013-.45-1.688-.675-3.037-2.025-3.825-3.713-.112-.338-.337-.675-.45-1.013.225-.112.45-.337.563-.45.675-.45 1.012-.787 1.012-1.237C7.65 4.162 5.063.563 4.95.563 4.838.224 4.387 0 4.05 0 2.925 0 0 3.825 0 4.5c0 0 0 3.825 4.838 8.662C9.562 18 13.5 18 13.5 18c.675 0 4.5-2.925 4.5-4.05 0-.337-.225-.787-.563-1.012z" fill="#BCC9DA"/></svg>