<svg width="40" height="40" fill="none" xmlns="http://www.w3.org/2000/svg"><path opacity=".6" fill-rule="evenodd" clip-rule="evenodd" d="M34.269 5.813C30.508 2.067 25.507.002 20.179 0 9.203 0 .269 8.89.264 19.82a19.712 19.712 0 002.66 9.91L.094 40l10.557-2.757a19.972 19.972 0 009.518 2.414h.008c10.976 0 19.912-8.892 19.917-19.822C40.1 14.54 38.03 9.558 34.27 5.813zm-14.09 30.495h-.006c-2.97 0-5.883-.795-8.425-2.296l-.605-.357-6.265 1.635 1.673-6.08-.393-.623a16.367 16.367 0 01-2.53-8.767c.002-9.083 7.43-16.473 16.56-16.473 4.421 0 8.578 1.716 11.703 4.83a16.339 16.339 0 014.843 11.655c-.005 9.086-7.43 16.476-16.554 16.476zM29.26 23.97c-.497-.248-2.944-1.447-3.401-1.612-.456-.165-.787-.248-1.12.247-.334.495-1.285 1.612-1.577 1.943-.29.33-.58.372-1.078.124-.497-.249-2.102-.77-4.003-2.459-1.478-1.313-2.478-2.935-2.768-3.431-.29-.497-.03-.764.218-1.01.224-.222.497-.579.747-.869.251-.286.333-.493.5-.825.166-.33.084-.62-.041-.868-.126-.247-1.12-2.685-1.534-3.677-.404-.966-.814-.835-1.12-.85-.29-.015-.622-.016-.955-.016-.332 0-.871.123-1.327.62-.455.496-1.741 1.695-1.741 4.131 0 2.439 1.783 4.794 2.031 5.124.248.33 3.509 5.333 8.5 7.478 1.188.51 2.116.815 2.838 1.043 1.192.377 2.277.324 3.135.197.956-.142 2.944-1.198 3.36-2.355.415-1.157.415-2.15.289-2.355-.124-.208-.456-.332-.953-.58z" fill="#1F1F1F"/></svg>