<svg width="240" height="237" viewBox="0 0 240 237" fill="none" xmlns="http://www.w3.org/2000/svg">
<path opacity="0.2" d="M211.125 203.826C204.878 210.226 199.286 213.988 195.009 216.828C153.27 244.526 105.559 236.542 90.8088 233.814C67.0091 229.412 46.9195 226.306 29.6587 210.808C-9.56258 175.591 -7.655 102.125 22.3152 56.6169C25.8685 51.2211 55.7937 7.137 103.604 0.924973C104.771 0.77251 105.647 0.686335 106.41 0.605961C113.807 -0.172096 159.643 -4.28279 197.019 26.8395C202.369 31.294 210.979 39.3298 218.963 51.584C248.159 96.3931 248.252 165.793 211.125 203.826Z" fill="#F4F7FA"/>
<path d="M166.015 18.6137V215.889C166.015 218.839 163.478 219.474 160.603 219.568L62.0398 224.634L60.5466 224.682C59.8221 224.708 59.0998 224.588 58.423 224.33C57.7463 224.071 57.1291 223.679 56.6085 223.178C56.0879 222.677 55.6746 222.076 55.3934 221.412C55.1122 220.748 54.9689 220.034 54.9722 219.313V15.1899C54.969 14.4694 55.1122 13.7556 55.3934 13.0915C55.6745 12.4273 56.0878 11.8265 56.6084 11.325C57.1291 10.8235 57.7463 10.4318 58.423 10.1733C59.0997 9.91474 59.822 9.79477 60.5466 9.82057L62.5734 9.88686L161.498 17.5332C164.372 17.6268 166.015 15.6606 166.015 18.6137Z" fill="url(#paint0_linear_183_1209)"/>
<path d="M169.085 18.6137V215.889C169.085 218.839 166.736 221.329 163.86 221.423L63.6183 224.682C62.8938 224.708 62.1715 224.588 61.4948 224.33C60.8181 224.071 60.2009 223.679 59.6803 223.178C59.1596 222.677 58.7463 222.076 58.4652 221.412C58.184 220.748 58.0407 220.034 58.044 219.313V15.1899C58.0407 14.4694 58.184 13.7556 58.4651 13.0915C58.7463 12.4273 59.1596 11.8265 59.6802 11.325C60.2008 10.8235 60.818 10.4318 61.4948 10.1733C62.1715 9.91474 62.8938 9.79477 63.6183 9.82057L163.861 13.0803C166.736 13.1747 169.085 15.6606 169.085 18.6137Z" fill="#432950"/>
<path d="M169.085 18.6137V215.889C169.085 218.839 166.736 221.329 163.86 221.423L63.6183 224.682C62.8938 224.708 62.1715 224.588 61.4948 224.33C60.8181 224.071 60.2009 223.679 59.6803 223.178C59.1596 222.677 58.7463 222.076 58.4652 221.412C58.184 220.748 58.0407 220.034 58.044 219.313V15.1899C58.0407 14.4694 58.184 13.7556 58.4651 13.0915C58.7463 12.4273 59.1596 11.8265 59.6802 11.325C60.2008 10.8235 60.818 10.4318 61.4948 10.1733C62.1715 9.91474 62.8938 9.79477 63.6183 9.82057L163.861 13.0803C166.736 13.1747 169.085 15.6606 169.085 18.6137Z" fill="black" fill-opacity="0.2"/>
<path d="M165.84 29.4587V212.212C165.84 214.966 163.645 217.288 160.958 217.371L66.7027 220.315C66.0277 220.337 65.355 220.224 64.7249 219.982C64.0948 219.741 63.5203 219.375 63.0357 218.907C62.5511 218.44 62.1665 217.88 61.9048 217.261C61.6431 216.642 61.5098 215.977 61.5127 215.306V26.5983C61.5101 25.9266 61.6435 25.2612 61.9052 24.6419C62.1668 24.0225 62.5512 23.4619 63.0356 22.9933C63.5199 22.5248 64.0942 22.158 64.7243 21.9148C65.3543 21.6716 66.0272 21.557 66.7027 21.5778L160.962 24.3122C163.645 24.3876 165.84 26.7044 165.84 29.4587Z" fill="url(#paint1_linear_183_1209)"/>
<path d="M116.373 17.5908C116.376 17.8334 116.33 18.0741 116.237 18.2985C116.144 18.523 116.007 18.7264 115.833 18.8967C115.659 19.067 115.452 19.2006 115.225 19.2894C114.998 19.3782 114.755 19.4205 114.511 19.4137C113.482 19.383 112.648 18.5138 112.648 17.4731C112.644 17.2304 112.691 16.9895 112.783 16.7649C112.876 16.5404 113.014 16.3368 113.188 16.1665C113.362 15.9962 113.569 15.8627 113.796 15.774C114.024 15.6852 114.267 15.6431 114.511 15.6502C115.013 15.673 115.487 15.8876 115.834 16.2491C116.181 16.6106 116.374 17.0912 116.373 17.5908Z" fill="#DE8BDF"/>
<path d="M157.124 113.319L70.749 113.213C69.5199 113.209 68.3427 112.72 67.4758 111.855C66.6089 110.989 66.1231 109.816 66.1251 108.595V30.8113C66.1207 30.2116 66.2381 29.6173 66.4703 29.0638C66.7025 28.5103 67.0447 28.0091 67.4764 27.5902C67.9082 27.1714 68.4206 26.8434 68.9829 26.626C69.5452 26.4087 70.1459 26.3063 70.749 26.3252L157.124 28.7074C159.542 28.7746 161.497 30.8336 161.497 33.3078V108.845C161.498 111.319 159.541 113.323 157.124 113.319Z" fill="#F4F7FA"/>
<path d="M130.461 104.355L98.4028 104.228C98.1995 104.225 98.0054 104.143 97.8628 103.999C97.7202 103.855 97.6407 103.661 97.6416 103.459V94.0954C97.641 93.9956 97.6602 93.8968 97.6981 93.8045C97.7361 93.7122 97.7921 93.6282 97.8628 93.5575C97.9336 93.4868 98.0177 93.4307 98.1104 93.3925C98.2031 93.3542 98.3025 93.3346 98.4028 93.3347L130.461 93.5692C130.662 93.5723 130.854 93.6543 130.994 93.7974C131.135 93.9406 131.213 94.1332 131.211 94.3332V103.6C131.212 103.699 131.194 103.797 131.157 103.888C131.119 103.98 131.064 104.063 130.995 104.133C130.925 104.204 130.842 104.259 130.75 104.298C130.658 104.336 130.56 104.355 130.461 104.355Z" fill="#764E80"/>
<path d="M153.865 68.3261L76.708 67.1519V36.7778L153.865 38.6637V68.3261Z" fill="#D8DEE8"/>
<path d="M153.865 84.5273L76.708 83.7418V73.0222L153.865 74.0588V84.5273Z" fill="#D8DEE8"/>
<path d="M157.124 209.777L70.7495 212.262C70.1467 212.282 69.5461 212.181 68.9837 211.964C68.4213 211.747 67.9089 211.42 67.477 211.002C67.0451 210.583 66.7028 210.082 66.4706 209.529C66.2384 208.976 66.121 208.382 66.1256 207.782V130.002C66.1241 128.78 66.6098 127.607 67.4764 126.741C68.3431 125.874 69.52 125.384 70.7495 125.378L157.124 125.165C159.542 125.159 161.497 127.16 161.497 129.633V205.17C161.499 207.648 159.541 209.707 157.124 209.777Z" fill="#F4F7FA"/>
<path d="M145.125 181.424L83.309 182.655C83.1117 182.659 82.9157 182.624 82.7324 182.551C82.5491 182.479 82.3823 182.37 82.2419 182.232C82.1015 182.095 81.9903 181.93 81.915 181.749C81.8397 181.568 81.8017 181.373 81.8033 181.177V136.528C81.8019 136.129 81.9595 135.746 82.2416 135.462C82.5237 135.177 82.9074 135.016 83.309 135.012L145.125 134.68C145.318 134.682 145.508 134.721 145.685 134.795C145.862 134.87 146.022 134.978 146.157 135.115C146.291 135.251 146.398 135.413 146.469 135.59C146.541 135.767 146.577 135.957 146.574 136.148V179.917C146.574 180.733 145.926 181.409 145.125 181.424Z" fill="#D8DEE8"/>
<path d="M130.461 200.994L98.4033 201.823C98.3036 201.825 98.2044 201.808 98.1117 201.771C98.0189 201.735 97.9345 201.68 97.8634 201.611C97.7924 201.541 97.7362 201.458 97.6982 201.366C97.6602 201.275 97.6411 201.176 97.6421 201.077V191.714C97.6418 191.511 97.721 191.315 97.8631 191.169C98.0051 191.023 98.1989 190.937 98.4033 190.93L130.461 190.208C130.56 190.206 130.658 190.224 130.75 190.26C130.842 190.297 130.925 190.351 130.995 190.42C131.065 190.49 131.121 190.572 131.158 190.663C131.195 190.754 131.213 190.852 131.212 190.95V200.218C131.212 200.419 131.134 200.612 130.994 200.757C130.854 200.902 130.663 200.987 130.461 200.994Z" fill="#764E80"/>
<path d="M114.511 161.826C114.197 161.828 113.891 161.725 113.644 161.532L79.8099 135.891C79.0404 135.311 78.8095 134.085 79.303 133.157C79.7966 132.229 80.8112 131.954 81.58 132.537L114.542 157.561L149.272 132.188C150.023 131.64 150.992 131.939 151.44 132.859C151.888 133.779 151.636 134.967 150.886 135.517L115.337 161.535C115.099 161.716 114.81 161.818 114.511 161.826Z" fill="#F4F7FA"/>
<g style="mix-blend-mode:multiply" opacity="0.5">
<path d="M169.085 30.7581C164.999 31.2584 160.963 32.0974 157.017 33.2662C149.855 35.3899 131.897 40.7137 122.266 55.7213C111.057 73.185 117.338 94.0856 118.854 99.1227C123.87 115.811 136.515 130.639 143.759 139.133C152.249 149.088 155.932 151.013 156.724 157.363C157.996 167.535 149.778 172.514 149.296 188.676C149.199 191.913 149.104 196.393 150.848 201.743C154.259 212.214 162.187 218.275 166.076 220.841C167.079 157.478 168.082 94.1168 169.085 30.7581Z" fill="#D8DEE8"/>
</g>
<path d="M180.773 104.05C189.065 100.026 205.238 114.603 213.109 128.566C216.245 134.13 219.928 140.664 219.024 148.429C217.423 162.197 202.054 174.275 180.902 178.307C180.306 176.193 179.711 174.079 179.115 171.966C181.428 169.572 184.887 166.116 189.307 162.156C196.097 156.073 197.492 155.667 197.818 153.747C198.884 147.457 182.608 142.19 176.818 131.127C171.841 121.621 174.403 107.138 180.773 104.05Z" fill="#432950"/>
<path d="M191.667 214.713C191.667 214.713 190.306 218.051 190.983 219.358C191.693 220.731 193.748 220.322 199.533 220.538C205.452 220.76 206.796 221.232 207.036 220.64C207.51 219.459 202.907 215.705 197.523 214.713C195.587 214.363 193.603 214.363 191.667 214.713Z" fill="url(#paint2_linear_183_1209)"/>
<path d="M192.887 209.724L196.108 214.713C196.108 214.713 194.624 216.169 192.101 215.625L188.558 210.898L192.887 209.724Z" fill="url(#paint3_linear_183_1209)"/>
<g style="mix-blend-mode:multiply" opacity="0.3">
<path d="M176.818 131.13C171.841 121.621 174.4 107.142 180.774 104.05C182.441 103.24 184.437 103.194 186.615 103.736C185.468 107.028 185.698 109.407 186.261 111.093C188.785 118.61 199.696 117.755 203.103 126.311C205.258 131.72 201.831 134.404 204.889 138.74C208.057 143.233 213.242 142.48 214.842 146.86C216.035 150.121 213.683 151.976 214.587 154.723C214.837 155.488 215.338 156.257 216.171 156.987C210.565 167.007 197.521 175.144 180.9 178.311C180.305 176.197 179.709 174.083 179.114 171.97C181.426 169.576 184.885 166.12 189.306 162.16C196.096 156.077 197.491 155.671 197.817 153.752C198.885 147.457 182.608 142.188 176.818 131.13Z" fill="#432950"/>
</g>
<path d="M186.431 107.034C186.072 121.446 186.273 137.03 187.324 153.617C188.556 173.102 190.866 192.505 194.244 211.737L190.155 213.034C176.126 199.445 171.927 187.498 170.778 178.901C169.965 172.825 171.195 172.302 170.099 164.697C168.015 150.214 162.563 145.254 158.738 131.696C157.302 126.607 155.704 118.919 155.805 108.897L186.431 107.034Z" fill="#432950"/>
<path d="M196.481 81.2199C196.227 81.2779 195.12 81.6433 194.683 86.2354C193.629 97.308 199.429 101.791 198.001 107.795C196.63 113.559 189.638 116.355 182.441 119.23C177.632 121.154 162.756 127.101 154.105 120.413C150.465 117.595 150.066 114.198 147.469 101.705C140.869 69.96 138.313 67.2347 141.088 60.3573C145.855 48.5564 158.617 43.6693 160.74 42.8564C183.38 34.1934 210.116 50.1307 220.681 68.4345C222.072 70.8449 230.38 85.2411 224.543 92.0696C221.011 96.2002 212.896 96.8672 207.54 94.0499C200.385 90.2864 198.865 80.6771 196.481 81.2199Z" fill="#D283B0"/>
<path opacity="0.8" d="M221.225 89.6169C221.298 89.6167 221.37 89.6012 221.437 89.5713C221.56 89.5149 221.655 89.4126 221.702 89.2866C221.748 89.1607 221.743 89.0215 221.687 88.8993C221.493 88.4776 216.82 78.5087 206.02 74.5753C205.956 74.5499 205.888 74.5374 205.82 74.5387C205.752 74.5399 205.684 74.5547 205.622 74.5824C205.559 74.61 205.503 74.6499 205.456 74.6996C205.41 74.7492 205.373 74.8077 205.35 74.8716C205.326 74.9354 205.316 75.0033 205.319 75.0712C205.323 75.1391 205.34 75.2056 205.37 75.2668C205.4 75.328 205.442 75.3826 205.493 75.4273C205.545 75.4721 205.605 75.5061 205.67 75.5274C216.057 79.3116 220.712 89.2208 220.76 89.3203C220.801 89.4089 220.866 89.484 220.949 89.5366C221.031 89.5892 221.127 89.6171 221.225 89.6169Z" fill="#B0608E"/>
<path d="M178.827 78.232C178.886 77.7738 179.354 74.611 182.011 73.5976C183.332 73.0938 185.655 72.9464 186.559 74.389C187.127 75.2946 187.078 76.7339 186.332 77.4407C185.389 78.3331 184.16 77.275 182.466 78.0058C180.429 78.8875 180.098 81.3327 179.395 81.1703C178.84 81.0427 178.673 79.4418 178.827 78.232Z" fill="#432950"/>
<path opacity="0.3" d="M155.891 56.3062C157.32 60.1716 153.033 63.5225 154.871 67.7194C157.504 73.7358 167.972 70.6476 171.712 76.597C176.147 83.6484 165.99 95.2132 170.18 99.1714C172.09 100.975 174.297 98.6652 179.878 99.9321C187.829 101.737 190.217 107.981 193.915 107.034C195.078 106.737 196.488 105.687 197.674 102.457C198.191 104.249 198.437 105.95 197.999 107.795C196.628 113.558 189.636 116.355 182.439 119.229C177.629 121.153 162.754 127.101 154.104 120.413C150.463 117.595 150.064 114.198 147.467 101.704C140.867 69.9599 138.311 67.2346 141.086 60.3572C142.6 56.6103 144.922 53.5627 147.45 51.1191C152.905 52.3223 155.143 54.2819 155.891 56.3062Z" fill="#764E80"/>
<path d="M178.661 75.2522C178.049 75.804 171.2 83.1148 163.749 81.2637C157.261 79.6512 153.277 73.3812 152.577 68.1055C150.917 55.5588 167.365 45.0272 165.333 42.4876C164.141 40.9961 157.791 43.7653 153.338 46.5477C149.688 48.8272 134.392 58.3802 134.802 74.3979C134.844 76.0228 135.107 86.3231 141.966 91.4671C151.23 98.4099 165.547 98.2252 180.842 81.441L178.661 75.2522Z" fill="#9A6094"/>
<path d="M212.101 59.879L204.727 83.2911C204.608 83.6648 204.377 83.9928 204.063 84.2302C203.749 84.4676 203.37 84.6027 202.976 84.6168L193.333 86.0105C193.042 86.0208 192.753 85.9649 192.488 85.8473C192.223 85.7296 191.988 85.5533 191.801 85.3318C191.615 85.1102 191.482 84.8493 191.412 84.5688C191.343 84.2884 191.339 83.9959 191.4 83.7137L197.903 59.7489C197.994 59.3359 198.221 58.9648 198.548 58.6945C198.875 58.4243 199.283 58.2704 199.708 58.2574L210.223 57.4164C210.528 57.4074 210.829 57.4709 211.104 57.6014C211.378 57.7319 211.617 57.9258 211.801 58.1667C211.985 58.4077 212.108 58.6888 212.16 58.9867C212.212 59.2845 212.192 59.5904 212.101 59.879Z" fill="url(#paint4_linear_183_1209)"/>
<path d="M211.748 60.6491L204.59 83.3719C204.476 83.7354 204.25 84.0546 203.946 84.2855C203.641 84.5165 203.271 84.6477 202.888 84.6612L194.414 86.0135C194.132 86.0234 193.852 85.9692 193.594 85.855C193.337 85.7407 193.109 85.5696 192.928 85.3544C192.747 85.1393 192.618 84.886 192.551 84.6138C192.483 84.3416 192.479 84.0576 192.539 83.7837L198.891 60.5124C198.978 60.1114 199.198 59.7509 199.515 59.4883C199.832 59.2257 200.229 59.0761 200.641 59.0632L209.922 58.2594C210.217 58.2503 210.51 58.3115 210.777 58.4379C211.044 58.5644 211.276 58.7524 211.455 58.9862C211.634 59.2201 211.753 59.4931 211.804 59.7824C211.855 60.0717 211.836 60.3688 211.748 60.6491Z" fill="url(#paint5_linear_183_1209)"/>
<path style="mix-blend-mode:multiply" opacity="0.3" d="M192.539 83.7834L198.607 61.5496C199.221 61.8379 199.797 62.2021 200.319 62.6334C202.709 64.6701 204.078 68.3582 203.289 71.3072C202.282 75.069 198.421 75.185 197.887 78.3147C197.47 80.7648 199.471 83.3584 201.119 84.9435L194.415 86.014C194.133 86.024 193.852 85.9698 193.594 85.8555C193.337 85.7412 193.109 85.57 192.928 85.3548C192.747 85.1396 192.618 84.8861 192.55 84.6138C192.483 84.3415 192.479 84.0574 192.539 83.7834Z" fill="url(#paint6_linear_183_1209)"/>
<path d="M184.078 40.6074C183.977 40.9564 183.949 41.3219 183.994 41.682C184.039 42.0421 184.157 42.3894 184.341 42.7031C184.524 43.0169 184.77 43.2905 185.062 43.5076C185.355 43.7247 185.689 43.8808 186.043 43.9666C187.856 44.4016 190.065 45.0032 191.018 45.5409C192.769 46.5353 185.682 45.3868 179.172 45.2344C175.104 45.1399 172.065 44.6858 170.355 44.3585C170.257 44.3392 170.168 44.288 170.102 44.2129C170.036 44.1378 169.997 44.043 169.991 43.9436C169.986 43.8442 170.013 43.7457 170.07 43.6636C170.127 43.5815 170.21 43.5205 170.305 43.4902C171.933 42.964 174.58 42.1892 176.817 41.9092C179.586 41.5637 182.556 35.49 182.556 35.49L184.926 37.6369L184.078 40.6074Z" fill="#432950"/>
<path d="M207.651 76.563L207.201 75.8314C207.008 75.0964 206.554 74.4561 205.922 74.0293C205.289 73.6026 204.523 73.4185 203.764 73.5113L201.397 73.8013C201.222 73.8228 201.054 73.8803 200.902 73.9701C200.751 74.0599 200.619 74.18 200.517 74.3228C200.415 74.4656 200.343 74.628 200.307 74.7997C200.271 74.9714 200.272 75.1486 200.309 75.3201C200.529 76.3691 201.096 77.6253 202.55 77.5275C205.019 77.3618 206.598 80.9397 206.598 80.9397L207.545 79.614C207.862 79.1717 208.041 78.6468 208.06 78.1043C208.079 77.5619 207.937 77.0259 207.651 76.563Z" fill="#432950"/>
<path d="M189.368 37.4948C191.414 37.1932 193.707 35.4838 193.662 34.0702C193.601 32.1288 189.134 31.0648 186.879 30.5279C184.624 29.991 183.656 30.184 183.01 30.6737C182.348 31.175 181.913 32.0708 181.771 32.8438C181.693 33.2648 181.687 33.844 181.761 34.9982C181.826 36.0232 181.807 35.9776 181.834 36.2809C181.898 37.0076 182.098 38.2861 182.811 40.0593C183.174 39.6618 183.571 39.2967 183.998 38.968C184.189 38.8214 184.945 38.253 185.805 37.9091C187.28 37.32 188.124 37.6779 189.368 37.4948Z" fill="#432950"/>
<path d="M181.722 38.0835C181.722 38.0835 181.855 40.9173 184.541 42.1619C186.947 43.2755 190.14 38.2841 189.262 36.3774C188.968 35.7419 188.061 35.0517 187.132 34.8363C186.582 34.7095 186.313 34.818 185.419 34.5943C184.595 34.388 184.435 34.1974 184.118 34.2629C183.719 34.3457 183.212 34.7923 182.833 36.5531C182.636 35.8662 182.198 35.4055 181.724 35.3773C181.557 35.3762 181.392 35.4216 181.25 35.5082C180.599 35.9209 180.726 36.9724 181.722 38.0835Z" fill="url(#paint7_linear_183_1209)"/>
<defs>
<linearGradient id="paint0_linear_183_1209" x1="189.179" y1="186.341" x2="94.6871" y2="105.236" gradientUnits="userSpaceOnUse">
<stop stop-color="#444B8C"/>
<stop offset="1" stop-color="#26264F"/>
</linearGradient>
<linearGradient id="paint1_linear_183_1209" x1="62.8494" y1="220.317" x2="183.813" y2="208.699" gradientUnits="userSpaceOnUse">
<stop stop-color="#16153A"/>
<stop offset="1" stop-color="#7E488C"/>
</linearGradient>
<linearGradient id="paint2_linear_183_1209" x1="38363.2" y1="14439.2" x2="38578.9" y2="17642.8" gradientUnits="userSpaceOnUse">
<stop stop-color="#444B8C"/>
<stop offset="1" stop-color="#26264F"/>
</linearGradient>
<linearGradient id="paint3_linear_183_1209" x1="188.481" y1="188.842" x2="194.281" y2="225.377" gradientUnits="userSpaceOnUse">
<stop stop-color="#311944"/>
<stop offset="1" stop-color="#A03976"/>
</linearGradient>
<linearGradient id="paint4_linear_183_1209" x1="55083.9" y1="28665.3" x2="47723.6" y2="24625.3" gradientUnits="userSpaceOnUse">
<stop stop-color="#444B8C"/>
<stop offset="1" stop-color="#26264F"/>
</linearGradient>
<linearGradient id="paint5_linear_183_1209" x1="-15362.4" y1="21799.3" x2="-19809.2" y2="27384.6" gradientUnits="userSpaceOnUse">
<stop stop-color="#444B8C"/>
<stop offset="1" stop-color="#26264F"/>
</linearGradient>
<linearGradient id="paint6_linear_183_1209" x1="25790.7" y1="17396.2" x2="33289.6" y2="25571.8" gradientUnits="userSpaceOnUse">
<stop stop-color="#444B8C"/>
<stop offset="1" stop-color="#26264F"/>
</linearGradient>
<linearGradient id="paint7_linear_183_1209" x1="9557.1" y1="2589.7" x2="9273.24" y2="3342.61" gradientUnits="userSpaceOnUse">
<stop stop-color="#311944"/>
<stop offset="1" stop-color="#A03976"/>
</linearGradient>
</defs>
</svg>
