<svg width="18" height="13" viewBox="0 0 18 13" fill="none" xmlns="http://www.w3.org/2000/svg">
<path d="M17.8875 0.920354L12.375 6.44248L17.8875 11.9646C18 11.7345 18 11.5044 18 11.2743V1.61062C18 1.38053 17.8875 1.15044 17.8875 0.920354ZM16.425 0H1.575C1.35 0 1.125 0.115044 0.9 0.115044L7.875 7.24779C8.4375 7.82301 9.45 7.82301 10.125 7.24779L17.1 0.115044C16.875 0.115044 16.65 0 16.425 0ZM0.1125 0.920354C0.1125 1.15044 0 1.38053 0 1.61062V11.2743C0 11.5044 0.1125 11.7345 0.1125 11.9646L5.625 6.44248L0.1125 0.920354ZM11.5875 7.24779L10.9125 8.0531C9.7875 9.08849 8.2125 9.08849 7.0875 8.0531L6.4125 7.24779L0.9 12.7699C1.125 12.885 1.35 12.885 1.575 12.885H16.425C16.65 12.885 16.875 12.7699 17.1 12.7699L11.5875 7.24779Z" fill="#BCC9DA"/>
</svg>
