<svg width="268" height="267" viewBox="0 0 268 267" fill="none" xmlns="http://www.w3.org/2000/svg">
<path opacity="0.2" d="M256.145 75.8835C263.183 11.158 201.029 -11.3287 156.966 5.24365C112.546 21.9504 102.248 -5.74447 39.7855 2.17327C-23.4599 10.1812 8.65133 110.414 8.65133 110.414C8.65133 110.414 18.7148 197.572 30.6372 237.748C42.495 277.705 156.001 263.249 183.613 262.057C211.065 260.871 234.921 263.159 258.806 219.286C282.648 175.491 249.129 140.395 256.145 75.8835Z" fill="#F4F7FA"/>
<path d="M175.404 244.607C176.892 243.897 179.509 241.028 179.885 240.001C182.393 233.134 187.916 220.586 185.132 213.378C184.657 212.147 178.729 212.797 177.581 211.899C173.701 211.387 172.324 211.452 168.873 209.136C158.684 202.299 169.658 179.625 148.499 179.827C133.002 179.974 122.685 188.75 117.13 166.202C111.576 143.654 81.3746 109.121 63.2377 132.044C52.8282 145.197 72.2776 159.563 69.8998 175.622C67.6398 190.878 76.6275 199.897 92.9881 203.272C109.349 206.646 103.9 215.119 103.887 228.919C103.867 245.503 127.585 240.693 138.346 237.53C147.012 234.98 170.782 234.398 175.404 244.607Z" fill="#432950"/>
<g style="mix-blend-mode:soft-light" opacity="0.8">
<g style="mix-blend-mode:soft-light" opacity="0.8">
<path d="M182.521 227.358C168.872 225.422 155.606 221.346 143.203 215.278C131.323 209.46 120.238 201.799 110.242 192.509C90.8374 174.476 75.8643 150.589 66.9365 123.43L67.2273 123.334C86.0656 180.656 129.182 219.429 182.563 227.056L182.521 227.358Z" fill="#FCFDFE"/>
</g>
<g style="mix-blend-mode:soft-light" opacity="0.8">
<path d="M103.083 235.792L102.902 235.543C114.862 226.74 137.2 219.309 152.702 218.978L152.709 219.287C137.258 219.617 115 227.021 103.083 235.792Z" fill="#FCFDFE"/>
</g>
<g style="mix-blend-mode:soft-light" opacity="0.8">
<path d="M172.067 225.743C164.654 222.385 159.207 215.393 155.884 204.954C153.459 197.335 152.198 188.087 152.137 177.468H152.443C152.504 188.057 153.76 197.273 156.175 204.861C159.471 215.213 164.859 222.146 172.191 225.464L172.067 225.743Z" fill="#FCFDFE"/>
</g>
<g style="mix-blend-mode:soft-light" opacity="0.8">
<path d="M107.581 189.839C94.1808 182.921 78.474 185.031 67.655 188.016L67.5742 187.717C78.4455 184.715 94.236 182.599 107.721 189.561L107.581 189.839Z" fill="#FCFDFE"/>
</g>
<g style="mix-blend-mode:soft-light" opacity="0.8">
<path d="M85.5087 162.843C79.0462 146.768 83.7762 129.22 87.1661 120.19L87.4512 120.3C84.0755 129.287 79.3731 146.75 85.79 162.727L85.5087 162.843Z" fill="#FCFDFE"/>
</g>
</g>
<path d="M150.638 252.43C161.039 251.279 171.427 249.95 181.802 248.442C181.97 248.557 185.379 231.563 174.641 222.65C153.405 205.387 167.709 189.889 171.79 180.707C178.252 167.768 174.854 153.758 157.336 153.551C137.906 153.033 134.384 128.865 137.905 106.872C140.628 96.1472 127.166 83.1355 113.733 80.1611C100.019 76.8666 86.3341 83.6137 82.1401 104.987C75.7916 129.738 99.817 144.663 108.719 157.072C117.475 169.255 97.1075 179.111 113.5 189.904C127.289 199.495 144.673 206.39 138.311 218.436C131.779 230.347 133.342 240.084 150.638 252.43Z" fill="#764E80"/>
<g style="mix-blend-mode:soft-light" opacity="0.8">
<g style="mix-blend-mode:soft-light" opacity="0.8">
<path d="M147.692 205.494C146.046 195.107 149.262 183.941 157.248 172.307C161.407 166.248 166.711 160.309 173.011 154.666C173.342 154.37 173.602 154.137 173.637 154.09L173.97 154.234C173.919 154.3 173.741 154.461 173.305 154.852C164.55 162.697 144.567 183.335 148.071 205.461L147.692 205.494Z" fill="#FCFDFE"/>
</g>
<g style="mix-blend-mode:soft-light" opacity="0.8">
<path d="M143.002 194.617C130.689 179.664 104.873 178.61 104.432 178.61L104.415 178.466L104.354 178.604L104.222 178.462L104.365 178.327C104.588 178.281 130.864 179.323 143.331 194.467L143.002 194.617Z" fill="#FCFDFE"/>
</g>
<g style="mix-blend-mode:soft-light" opacity="0.8">
<path d="M162.831 247.607C162.608 243.061 164.76 235.322 176.268 224.271C176.539 224.012 176.772 223.788 176.804 223.744L176.945 223.8L177.171 223.776C177.186 223.862 177.186 223.862 176.571 224.45C165.133 235.431 162.995 243.099 163.216 247.596L162.831 247.607Z" fill="#FCFDFE"/>
</g>
<g style="mix-blend-mode:soft-light" opacity="0.8">
<path d="M160.189 239.135C157.164 231.289 142.466 225.506 133.973 222.757C133.688 222.664 133.498 222.603 133.431 222.578L133.607 222.319C133.67 222.343 133.848 222.401 134.125 222.491C142.678 225.26 157.489 231.093 160.558 239.053L160.189 239.135Z" fill="#FCFDFE"/>
</g>
</g>
<path d="M165.597 257.132L116.307 253.346V113.314L165.597 109.629V257.132Z" fill="url(#paint0_linear_78_2396)"/>
<path d="M120.118 247.226V119.444L165.597 116.357V250.404L120.118 247.226Z" fill="white"/>
<path d="M199.215 249.085H256.7V117.87H199.215V249.085Z" fill="url(#paint1_linear_78_2396)"/>
<path d="M252.041 243.092V123.774H199.216V243.092H252.041Z" fill="white"/>
<path d="M199.216 249.086L165.597 257.132V109.629L199.216 117.87V249.086Z" fill="#B0608E"/>
<path d="M165.597 250.404V116.357L199.216 123.854V243.1L165.597 250.404Z" fill="#D8DEE8"/>
<path d="M180.075 84.2543C180.075 102.317 202.846 145.689 212.287 160.808C213.892 163.379 220.492 162.901 222.097 160.329C231.535 145.211 257.291 102.317 257.291 84.2543C257.291 62.1361 240.006 44.2061 218.685 44.2061C197.363 44.2061 180.075 62.1361 180.075 84.2543Z" fill="url(#paint2_linear_78_2396)"/>
<path d="M175.884 84.2543C175.884 102.317 201.632 145.211 211.073 160.331C211.432 160.92 211.935 161.406 212.533 161.744C213.131 162.081 213.804 162.258 214.49 162.258C215.175 162.258 215.849 162.081 216.447 161.744C217.045 161.406 217.547 160.92 217.906 160.331C227.347 145.211 253.096 102.317 253.096 84.2543C253.096 62.1361 235.811 44.2061 214.49 44.2061C193.168 44.2061 175.884 62.1361 175.884 84.2543Z" fill="#432950"/>
<path opacity="0.7" d="M214.49 102.617C226.233 102.617 235.753 92.7414 235.753 80.5592C235.753 68.3771 226.233 58.5015 214.49 58.5015C202.746 58.5015 193.226 68.3771 193.226 80.5592C193.226 92.7414 202.746 102.617 214.49 102.617Z" fill="white"/>
<path d="M214.489 101.303C225.533 101.303 234.486 92.0159 234.486 80.5592C234.486 69.1025 225.533 59.8149 214.489 59.8149C203.446 59.8149 194.493 69.1025 194.493 80.5592C194.493 92.0159 203.446 101.303 214.489 101.303Z" fill="white"/>
<path d="M56.643 260.989C55.9674 262.381 56.1574 262.979 56.3256 263.242C56.8188 264.009 58.0057 263.285 61.1054 263.655C61.7451 263.753 62.3973 263.731 63.0288 263.588C63.77 263.411 64.6442 263.012 64.6072 262.812C64.5939 262.739 64.4618 262.71 64.4171 262.699C63.5562 262.514 58.172 260.846 58.172 260.846L56.643 260.989Z" fill="url(#paint3_linear_78_2396)"/>
<path d="M56.2296 257.93L56.7104 261.04C56.7104 261.04 58.0342 261.985 58.382 260.838C58.6319 260.014 58.6252 257.791 58.6252 257.791L56.2296 257.93Z" fill="url(#paint4_linear_78_2396)"/>
<path d="M71.8591 259.47L70.56 263.052L68.6719 262.749L69.109 259.432L71.8591 259.47Z" fill="url(#paint5_linear_78_2396)"/>
<path d="M69.9718 265.024C69.0577 263.93 68.2414 264.029 68.077 263.277C67.9478 262.685 68.306 261.96 68.8476 261.685C69.6079 261.301 70.5287 261.903 70.7368 262.039C72.1508 262.966 71.765 264.418 73.0982 265.046C73.3661 265.173 73.7919 265.307 74.2385 265.731C74.4285 265.912 74.9037 266.358 74.7896 266.665C74.6623 267.02 73.8223 267.007 73.0231 266.996C72.0643 266.981 71.5844 266.975 71.1226 266.684C70.4859 266.282 70.6769 265.869 69.9718 265.024Z" fill="url(#paint6_linear_78_2396)"/>
<path d="M46.1261 183.512C46.4179 189.727 47.2688 195.903 48.6684 201.962C49.9247 207.38 50.609 208.306 51.0443 212.061C51.9947 220.233 49.403 221.464 49.1198 230.728C48.8071 240.96 51.6715 249.024 52.7949 252.1C53.5883 254.273 54.5086 256.396 55.551 258.459C56.5014 259.256 57.9098 258.911 59.399 258.572C59.7535 249.29 60.2544 240.551 60.6098 231.269C62.0905 217.285 63.5718 203.302 65.0538 189.318L46.1261 183.512Z" fill="url(#paint7_linear_78_2396)"/>
<path style="mix-blend-mode:multiply" opacity="0.3" d="M59.4009 258.572C59.7554 249.29 60.2562 240.551 60.6117 231.269C62.0924 217.285 63.5737 203.302 65.0556 189.318L46.1261 183.512C46.1489 183.992 46.1822 184.453 46.2116 184.924C55.166 192.44 57.0164 198.509 57.0193 202.674C57.0193 207.728 54.3392 210.291 55.0292 217.603C55.5234 222.831 57.1019 223.72 57.2017 228.445C57.33 234.529 54.8163 238.007 53.6312 241.55C52.4907 244.975 52.1543 249.802 54.6519 256.593C54.976 257.293 55.281 257.92 55.5528 258.457C56.4985 259.256 57.9117 258.912 59.4009 258.572Z" fill="url(#paint8_linear_78_2396)"/>
<path d="M57.3682 190.247C62.1419 198 64.8314 204.126 66.3017 207.913C67.1988 210.222 68.018 212.632 68.2642 215.809C68.4947 218.904 68.1492 222.016 67.2454 224.983C66.2135 227.97 65.4768 231.053 65.0462 234.186C63.5047 245.447 66.3074 254.783 68.459 260.14L71.8262 261.316C75.0384 251.58 77.4463 241.593 79.0252 231.455C80.0925 224.622 80.9051 219.263 80.7692 212.482C80.6266 205.332 79.3807 194.039 73.2983 180.648L57.3682 190.247Z" fill="url(#paint9_linear_78_2396)"/>
<path d="M58.6266 128.285C65.7344 129.359 71.1525 130.52 73.6424 134.213C76.2693 138.113 72.2901 141.178 71.3749 149.88C69.975 163.202 77.6473 168.001 75.7532 181.425C75.2482 184.944 74.2083 188.364 72.6702 191.562C70.4226 193.496 66.8397 196.146 61.9424 197.991C54.8146 200.683 51.2412 199.285 41.5921 200.052C25.8083 201.306 23.5407 205.985 16.3407 203.293C9.06367 200.574 3.67601 192.916 5.13578 189.563C6.01012 187.554 8.92777 188.733 13.0239 186.205C18.3003 182.942 17.312 178.668 21.5696 174.889C27.6843 169.463 33.7895 174.677 39.0185 169.96C44.3073 165.189 44.7103 153.856 42.2763 147.168C40.6873 142.799 40.5581 138.013 39.352 133.521C39.203 132.978 39.2136 132.404 39.3825 131.868C40.2102 129.253 44.9041 128.652 48.4528 128.232C53.8614 127.59 58.0421 128.189 58.6266 128.285Z" fill="#B0608E"/>
<g style="mix-blend-mode:multiply" opacity="0.3">
<path d="M17.0599 198.238C19.2163 196.718 17.9428 192.571 21.1361 190.285C24.1003 188.164 26.5028 190.803 30.9059 189.334C36.554 187.451 36.1396 181.932 41.5501 180.05C45.4409 178.697 46.6764 181.196 52.3302 181.183C57.9839 181.169 65.3151 178.657 69.8769 172.516C71.6073 170.167 72.8148 167.468 73.417 164.604C75.0327 169.491 76.769 174.212 75.753 181.417C75.248 184.936 74.2081 188.355 72.67 191.554C70.4224 193.487 66.8395 196.137 61.9422 197.982C54.8144 200.674 51.241 199.277 41.5919 200.043C25.8081 201.297 23.5405 205.976 16.3405 203.285C11.6894 201.547 7.82137 197.793 6.00806 194.434C12.348 198.895 15.4947 199.34 17.0599 198.238Z" fill="#764E80"/>
</g>
<path d="M60.6489 115.795C60.6489 115.795 62.9298 119.298 63.2881 121.872C63.6464 124.446 60.7402 124.526 60.7402 124.526L60.9977 126.146C61.1053 126.824 61.4049 127.455 61.8603 127.964C62.3157 128.473 62.9073 128.838 63.5637 129.014L64.7431 129.331C64.7431 129.331 57.4481 131.634 53.1191 129.112L54.2805 128.888C55.0776 128.733 55.7971 128.304 56.3167 127.674C56.8364 127.045 57.1243 126.253 57.1316 125.434L57.1421 124.734C57.1421 124.734 55.113 116.795 60.6489 115.795Z" fill="url(#paint10_linear_78_2396)"/>
<path d="M74.3352 156.816L83.5747 135.995C83.6304 135.87 83.7243 135.766 83.8427 135.699C83.961 135.632 84.0976 135.605 84.2324 135.622L100.389 137.679C100.489 137.692 100.584 137.728 100.667 137.786C100.751 137.843 100.819 137.92 100.867 138.009C100.915 138.099 100.941 138.198 100.943 138.3C100.945 138.402 100.923 138.503 100.879 138.594L89.985 161.091C89.9214 161.223 89.8152 161.328 89.6839 161.39C89.5527 161.452 89.4043 161.467 89.2636 161.432L74.8798 157.837L74.3352 156.816Z" fill="url(#paint11_linear_78_2396)"/>
<path d="M76.8776 154.296L84.3589 137.438C84.4039 137.337 84.48 137.253 84.576 137.198C84.672 137.144 84.7828 137.122 84.892 137.136L97.9729 138.801C98.0539 138.811 98.1312 138.841 98.1985 138.888C98.2658 138.934 98.3212 138.996 98.36 139.069C98.3988 139.141 98.42 139.222 98.4217 139.304C98.4235 139.387 98.4058 139.468 98.3702 139.542L89.5498 157.757C89.4986 157.864 89.4126 157.949 89.3064 158C89.2002 158.05 89.0801 158.061 88.9663 158.033L77.3195 155.125L76.8776 154.296Z" fill="#F4F7FA"/>
<path d="M87.0712 137.336L87.6641 135.984C87.7038 135.893 87.7714 135.817 87.8569 135.768C87.9424 135.718 88.0413 135.698 88.1392 135.709L94.8614 136.507C94.9339 136.516 95.0034 136.542 95.0642 136.583C95.125 136.623 95.1754 136.678 95.2112 136.742C95.247 136.807 95.2674 136.879 95.2705 136.952C95.2736 137.026 95.2594 137.099 95.2292 137.166L94.564 138.637C94.5228 138.729 94.4534 138.805 94.366 138.853C94.2787 138.902 94.1782 138.921 94.0793 138.908L87.4275 137.99C87.3566 137.979 87.2891 137.952 87.2302 137.911C87.1713 137.87 87.1227 137.816 87.0882 137.752C87.0536 137.689 87.0341 137.619 87.0312 137.546C87.0282 137.474 87.0419 137.402 87.0712 137.336Z" fill="url(#paint12_linear_78_2396)"/>
<path d="M96.2404 141.894C96.2303 141.895 96.2201 141.895 96.21 141.894L84.3608 140.359C84.2905 140.35 84.2267 140.313 84.1833 140.256C84.1398 140.199 84.1203 140.128 84.129 140.057C84.1391 139.986 84.1762 139.922 84.2322 139.879C84.2883 139.835 84.359 139.815 84.4293 139.824L96.2775 141.359C96.3443 141.369 96.405 141.404 96.4473 141.457C96.4897 141.51 96.5106 141.577 96.5059 141.645C96.5012 141.713 96.4713 141.777 96.4221 141.824C96.3728 141.87 96.308 141.896 96.2404 141.897V141.894Z" fill="#D8DEE8"/>
<path d="M95.6322 143.102H95.5989L83.8143 141.451C83.7467 141.438 83.6867 141.399 83.6466 141.343C83.6064 141.286 83.5893 141.216 83.5987 141.148C83.6081 141.079 83.6433 141.016 83.6971 140.973C83.7508 140.93 83.819 140.909 83.8874 140.915L95.6721 142.566C95.7391 142.576 95.8 142.612 95.8423 142.665C95.8847 142.719 95.9054 142.786 95.9003 142.854C95.8953 142.923 95.8648 142.986 95.815 143.033C95.7653 143.079 95.6999 143.105 95.6322 143.105V143.102Z" fill="#D8DEE8"/>
<path d="M89.7001 145C89.6865 145.002 89.6728 145.002 89.6592 145L83.2316 143.919C83.197 143.913 83.1638 143.9 83.1341 143.882C83.1043 143.863 83.0784 143.839 83.058 143.81C83.0376 143.781 83.0229 143.748 83.015 143.714C83.007 143.679 83.0059 143.643 83.0117 143.609C83.0174 143.574 83.0299 143.54 83.0485 143.51C83.067 143.48 83.0913 143.454 83.1198 143.433C83.1483 143.413 83.1806 143.398 83.2148 143.39C83.249 143.382 83.2844 143.381 83.3191 143.386L89.7466 144.468C89.8142 144.477 89.8755 144.513 89.9179 144.567C89.9603 144.621 89.9806 144.689 89.9747 144.758C89.9687 144.827 89.9369 144.89 89.8859 144.936C89.8348 144.982 89.7683 145.006 89.7001 145.004V145Z" fill="#D8DEE8"/>
<path d="M92.6516 155.585C92.6516 155.585 95.2838 153.778 95.5908 152.504C95.8977 151.229 95.8207 148.831 95.8207 148.831L94.2861 152.209C94.2861 152.209 93.5449 151.994 93.2256 150.881C92.9063 149.768 92.3704 150.785 92.5842 151.629C92.798 152.472 92.6516 155.585 92.6516 155.585Z" fill="url(#paint13_linear_78_2396)"/>
<path d="M72.3803 132.952C74.4348 134.202 76.2448 135.821 77.7205 137.73C82.9932 144.621 80.9375 151.963 85.2997 154.559C86.5466 155.302 88.7363 155.902 92.6889 154.494L94.2038 155.307C94.2038 155.307 96.0551 164.806 84.625 165.165C73.1948 165.524 67.5011 151.176 67.5011 151.176L72.3803 132.952Z" fill="#B0608E"/>
<path d="M59.8211 119.567C59.4334 119.567 59.0713 119.108 58.8213 119.279C58.5714 119.45 58.655 120.172 58.9411 120.654C59.1248 120.954 59.3909 121.194 59.7071 121.345C59.3451 121.948 59.1201 122.625 59.0485 123.327C58.8707 125.227 59.9912 126.637 60.4797 127.478C62.6846 131.269 60.3847 137.799 57.5336 141.255C55.2109 144.064 53.9222 143.141 52.5916 145.381C49.9924 149.746 54.5047 153.856 53.4707 159.501C51.8969 168.083 39.0412 171.79 38.5081 171.937C38.298 171.994 38.1564 172.033 37.9378 172.088C32.1548 173.576 23.3895 175.83 16.6809 171.551C11.6619 168.348 8.93342 162.215 8.77946 156.604C8.73859 155.128 8.67017 149.517 12.7501 144.553C13.3973 143.765 17.233 139.11 22.9381 138.526C25.9593 138.217 26.6674 139.236 28.9188 138.356C32.0018 137.15 33.6868 134.063 34.7322 132.148C36.6548 128.624 35.6826 128.001 37.1376 126.221C39.983 122.733 43.8929 124.9 46.9863 121.768C50.0351 118.681 47.6982 115.095 50.6662 112.394C53.7292 109.606 60.0996 109.886 61.7105 112.716C63.0885 115.151 61.0091 119.553 59.8211 119.567Z" fill="url(#paint14_linear_78_2396)"/>
<path d="M132.348 203.197L102.647 199.531V155.307L132.348 149.627V203.197Z" fill="url(#paint15_linear_78_2396)"/>
<path d="M168.575 200.867L132.348 203.197V149.627L168.575 154.676V200.867Z" fill="url(#paint16_linear_78_2396)"/>
<g style="mix-blend-mode:soft-light">
<path d="M146.004 151.531V159.042L158.064 160.179V153.212L146.004 151.531Z" fill="white"/>
</g>
<path d="M175.7 261.684L127.012 265.141V193.146L175.7 196.603V261.684Z" fill="url(#paint17_linear_78_2396)"/>
<path d="M175.7 261.684L127.012 265.141V193.146L175.7 196.603V261.684Z" fill="black" fill-opacity="0.2"/>
<path d="M127.013 265.141L87.0959 260.214V197.742L127.013 193.146V265.141Z" fill="url(#paint18_linear_78_2396)"/>
<path d="M127.013 265.141L87.0959 260.214V197.742L127.013 193.146V265.141Z" fill="black" fill-opacity="0.05"/>
<g style="mix-blend-mode:soft-light">
<path d="M144.248 194.37V205.626L160.561 206.462V195.529L144.248 194.37Z" fill="white"/>
</g>
<defs>
<linearGradient id="paint0_linear_78_2396" x1="116.939" y1="257.132" x2="174.4" y2="253.619" gradientUnits="userSpaceOnUse">
<stop stop-color="#16153A"/>
<stop offset="1" stop-color="#7E488C"/>
</linearGradient>
<linearGradient id="paint1_linear_78_2396" x1="255.964" y1="117.87" x2="189.126" y2="123.228" gradientUnits="userSpaceOnUse">
<stop stop-color="#16153A"/>
<stop offset="1" stop-color="#7E488C"/>
</linearGradient>
<linearGradient id="paint2_linear_78_2396" x1="247.274" y1="99.9488" x2="212.462" y2="103.78" gradientUnits="userSpaceOnUse">
<stop stop-color="#893976"/>
<stop offset="1" stop-color="#311944"/>
</linearGradient>
<linearGradient id="paint3_linear_78_2396" x1="62.9357" y1="271.729" x2="56.5225" y2="249.693" gradientUnits="userSpaceOnUse">
<stop stop-color="#444B8C"/>
<stop offset="1" stop-color="#26264F"/>
</linearGradient>
<linearGradient id="paint4_linear_78_2396" x1="57.3025" y1="267.371" x2="57.7941" y2="232.062" gradientUnits="userSpaceOnUse">
<stop stop-color="#FFC444"/>
<stop offset="1" stop-color="#F36F56"/>
</linearGradient>
<linearGradient id="paint5_linear_78_2396" x1="6366.89" y1="10286.7" x2="6366.89" y2="8954.36" gradientUnits="userSpaceOnUse">
<stop stop-color="#FFC444"/>
<stop offset="1" stop-color="#F36F56"/>
</linearGradient>
<linearGradient id="paint6_linear_78_2396" x1="13592.6" y1="15410.8" x2="13278.8" y2="14126.1" gradientUnits="userSpaceOnUse">
<stop stop-color="#444B8C"/>
<stop offset="1" stop-color="#26264F"/>
</linearGradient>
<linearGradient id="paint7_linear_78_2396" x1="55.3214" y1="191.131" x2="51.032" y2="264.05" gradientUnits="userSpaceOnUse">
<stop stop-color="#311944"/>
<stop offset="1" stop-color="#893976"/>
</linearGradient>
<linearGradient id="paint8_linear_78_2396" x1="34285.5" y1="149235" x2="24414.7" y2="204972" gradientUnits="userSpaceOnUse">
<stop stop-color="#311944"/>
<stop offset="1" stop-color="#893976"/>
</linearGradient>
<linearGradient id="paint9_linear_78_2396" x1="54477.5" y1="185677" x2="39939" y2="185485" gradientUnits="userSpaceOnUse">
<stop stop-color="#311944"/>
<stop offset="1" stop-color="#893976"/>
</linearGradient>
<linearGradient id="paint10_linear_78_2396" x1="21881.5" y1="16394.3" x2="20735.5" y2="18081.5" gradientUnits="userSpaceOnUse">
<stop stop-color="#FFC444"/>
<stop offset="1" stop-color="#F36F56"/>
</linearGradient>
<linearGradient id="paint11_linear_78_2396" x1="58249.2" y1="37395.3" x2="54176.7" y2="44180.2" gradientUnits="userSpaceOnUse">
<stop stop-color="#444B8C"/>
<stop offset="1" stop-color="#26264F"/>
</linearGradient>
<linearGradient id="paint12_linear_78_2396" x1="17788.1" y1="4955.2" x2="17848.8" y2="4654.99" gradientUnits="userSpaceOnUse">
<stop stop-color="#AA80F9"/>
<stop offset="1" stop-color="#6165D7"/>
</linearGradient>
<linearGradient id="paint13_linear_78_2396" x1="7406.14" y1="10579.8" x2="7124.61" y2="10801.9" gradientUnits="userSpaceOnUse">
<stop stop-color="#FFC444"/>
<stop offset="1" stop-color="#F36F56"/>
</linearGradient>
<linearGradient id="paint14_linear_78_2396" x1="78971.2" y1="106785" x2="99107.8" y2="64905.5" gradientUnits="userSpaceOnUse">
<stop stop-color="#444B8C"/>
<stop offset="1" stop-color="#26264F"/>
</linearGradient>
<linearGradient id="paint15_linear_78_2396" x1="39761" y1="93962.4" x2="101372" y2="177844" gradientUnits="userSpaceOnUse">
<stop stop-color="#FFC1C1"/>
<stop offset="0.31" stop-color="#FB4A8A"/>
<stop offset="1" stop-color="#FFD3D3"/>
</linearGradient>
<linearGradient id="paint16_linear_78_2396" x1="10586.8" y1="135981" x2="42117.6" y2="122755" gradientUnits="userSpaceOnUse">
<stop stop-color="#FFC444"/>
<stop offset="0.31" stop-color="#FBA94A"/>
<stop offset="1" stop-color="#FC6681"/>
</linearGradient>
<linearGradient id="paint17_linear_78_2396" x1="14177.3" y1="182744" x2="56553.1" y2="164970" gradientUnits="userSpaceOnUse">
<stop stop-color="#FFC444"/>
<stop offset="0.31" stop-color="#FBA94A"/>
<stop offset="1" stop-color="#FC6681"/>
</linearGradient>
<linearGradient id="paint18_linear_78_2396" x1="53385.7" y1="126273" x2="136189" y2="239005" gradientUnits="userSpaceOnUse">
<stop stop-color="#FFC1C1"/>
<stop offset="0.31" stop-color="#FB4A8A"/>
<stop offset="1" stop-color="#FFD3D3"/>
</linearGradient>
</defs>
</svg>
