<svg fill="none" height="18" viewBox="0 0 18 18" width="18" xmlns="http://www.w3.org/2000/svg"><path d="m17.4375 12.9375s-3.6-2.5875-4.6125-2.475c-.45.1125-.7875.45-1.2375 1.0125-.1125.1125-.3375.3375-.45.5625-.3375-.1125-.675-.225-1.0125-.45-1.6875-.675-3.0375-2.025-3.825-3.7125-.1125-.3375-.3375-.675-.45-1.0125.225-.1125.45-.3375.5625-.45.675-.45 1.0125-.7875 1.0125-1.2375.225-1.0125-2.3625-4.6125-2.475-4.6125-.1125-.3375-.5625-.5625-.9-.5625-1.125 0-4.05 3.825-4.05 4.5 0 0 0 3.825 4.8375 8.6625 4.725 4.8375 8.6625 4.8375 8.6625 4.8375.675 0 4.5-2.925 4.5-4.05 0-.3375-.225-.7875-.5625-1.0125z" fill="#bcc9da"/></svg>