<svg width="40" height="40" viewBox="0 0 40 40" fill="none" xmlns="http://www.w3.org/2000/svg">
<path opacity="0.6" fill-rule="evenodd" clip-rule="evenodd" d="M34.269 5.81333C30.5076 2.06667 25.507 0.00166667 20.1798 0C9.20219 0 0.267708 8.89 0.262684 19.82C0.261009 23.3133 1.17874 26.7233 2.92209 29.73L0.0952148 40L10.6525 37.2433C13.5614 38.8233 16.8371 39.655 20.1697 39.6567H20.1781C31.154 39.6567 40.0902 30.765 40.0952 19.835C40.0986 14.54 38.0286 9.55833 34.269 5.81333ZM20.1798 36.3083H20.1731C17.2022 36.3083 14.2899 35.5133 11.7477 34.0117L11.1432 33.655L4.87813 35.29L6.55115 29.21L6.1576 28.5867C4.49965 25.9633 3.62546 22.9317 3.62714 19.82C3.63049 10.7367 11.0577 3.34667 20.1882 3.34667C24.6093 3.34667 28.7659 5.06333 31.8909 8.17667C35.0159 11.2917 36.7358 15.43 36.7341 19.8317C36.7291 28.9183 29.3035 36.3083 20.1798 36.3083ZM29.26 23.97C28.7626 23.7217 26.3159 22.5233 25.8587 22.3583C25.4031 22.1933 25.0716 22.11 24.7383 22.605C24.405 23.1 23.4538 24.2167 23.1624 24.5483C22.8727 24.8783 22.5813 24.92 22.0839 24.6717C21.5865 24.4233 19.9822 23.9017 18.0814 22.2133C16.6026 20.9 15.6029 19.2783 15.3131 18.7817C15.0234 18.285 15.283 18.0183 15.5308 17.7717C15.7553 17.55 16.0282 17.1933 16.2778 16.9033C16.529 16.6167 16.611 16.41 16.7785 16.0783C16.9443 15.7483 16.8622 15.4583 16.7366 15.21C16.611 14.9633 15.6163 12.525 15.2026 11.5333C14.799 10.5667 14.3887 10.6983 14.0822 10.6833C13.7925 10.6683 13.4609 10.6667 13.1277 10.6667C12.7961 10.6667 12.2568 10.79 11.8013 11.2867C11.3458 11.7833 10.0596 12.9817 10.0596 15.4183C10.0596 17.8567 11.8432 20.2117 12.091 20.5417C12.3389 20.8717 15.5995 25.875 20.5918 28.02C21.7791 28.53 22.7069 28.835 23.4287 29.0633C24.6211 29.44 25.7063 29.3867 26.5637 29.26C27.52 29.1183 29.5078 28.0617 29.9231 26.905C30.3385 25.7483 30.3385 24.755 30.2129 24.55C30.0889 24.3417 29.7573 24.2183 29.26 23.97Z" fill="#1F1F1F"/>
</svg>
